<svg width="61" height="24" viewBox="0 0 61 24" fill="none" xmlns="http://www.w3.org/2000/svg" role="img" aria-labelledby="logoTitle">
  <title id="logoTitle">Hulu Logo</title>
  <path fill="#1CE783" fill-rule="evenodd" clip-rule="evenodd" d="M9.57 6.24H6.47c-1.09 0-1.63.29-1.63.29V0H0v20h4.83v-8.07c0-.71.58-1.29 1.3-1.29h2.81c.72 0 1.3.58 1.3 1.29V20h4.84v-8.7c0-3.66-2.44-5.06-5.5-5.06zM56.05 6.24v8.07c0 .71-.58 1.29-1.29 1.29h-2.81c-.72 0-1.3-.58-1.3-1.29V6.24h-4.84v8.47c0 3.46 2.22 5.29 5.51 5.29h4.73v-.03c3.02 0 4.83-2.15 4.83-5.26V6.24h-4.83zM28.77 14.31c0 .71-.58 1.29-1.3 1.29h-2.81c-.72 0-1.3-.58-1.3-1.29V6.24h-4.84v8.47c0 3.46 2.22 5.29 5.51 5.29h4.73v-.03c3.02 0 4.84-2.15 4.84-5.26V6.24h-4.84v8.07zM37.29 20h4.84V0h-4.84v20z"/>
</svg>
